<svg width="210" height="95" viewBox="0 0 210 95" fill="none" xmlns="http://www.w3.org/2000/svg">
<g filter="url(#filter0_b_5704_96)">
<rect x="1" y="1" width="208" height="93" rx="7" stroke="#0A0A0A" stroke-width="2"/>
<path d="M21 15.5H46V45.5H21C16.0294 45.5 12 41.4706 12 36.5V24.5C12 19.5294 16.0294 15.5 21 15.5Z" fill="#2DD4BF" fill-opacity="0.33"/>
<path d="M21 15.5H46V45.5H21C16.0294 45.5 12 41.4706 12 36.5V24.5C12 19.5294 16.0294 15.5 21 15.5Z" stroke="#2DD4BF" stroke-width="2"/>
<path d="M18.8047 37.5L24.1562 23.2129H27.1348L32.5645 37.5H29.498L25.8555 27.3828C25.7773 27.1615 25.7122 26.9499 25.6602 26.748C25.6146 26.5397 25.5723 26.3314 25.5332 26.123H25.4551C25.416 26.3314 25.3704 26.5397 25.3184 26.748C25.2728 26.9564 25.2109 27.168 25.1328 27.3828L21.4902 37.5H18.8047ZM21.7637 34.2969L22.4375 32.1582H28.7168L29.4004 34.2969H21.7637ZM32.8262 28.3594V26.7363H38.4746V28.3594H32.8262ZM34.7305 30.4922V24.6094H36.5645V30.4922H34.7305Z" fill="#171717"/>
<rect width="22" height="32" transform="translate(47 14.5)" fill="#34D399"/>
<g style="mix-blend-mode:screen">
<path d="M53.3789 35.5L57.1318 25.4922H58.8408L62.6211 35.5H60.8027L58.1846 28.2334C58.1299 28.083 58.0843 27.9372 58.0479 27.7959C58.0114 27.6501 57.9772 27.5042 57.9453 27.3584H57.8838C57.8564 27.5042 57.8245 27.6501 57.7881 27.7959C57.7516 27.9372 57.7061 28.083 57.6514 28.2334L55.0195 35.5H53.3789ZM55.2588 33.1074L55.7031 31.7881H60.208L60.6455 33.1074H55.2588Z" fill="#34D399"/>
</g>
<rect width="21" height="32" transform="translate(69 14.5)" fill="#22C55E"/>
<g style="mix-blend-mode:screen">
<path d="M76.1709 35.5V25.5469H79.6504C80.7031 25.5469 81.528 25.7611 82.125 26.1895C82.7266 26.6133 83.0273 27.2764 83.0273 28.1787C83.0273 28.7256 82.8952 29.1745 82.6309 29.5254C82.3665 29.8717 82.0407 30.1133 81.6533 30.25V30.2773C82.1318 30.4141 82.5238 30.6807 82.8291 31.0771C83.1344 31.4691 83.2871 31.9863 83.2871 32.6289C83.2871 33.5404 82.9727 34.2467 82.3438 34.748C81.7148 35.2493 80.8854 35.5 79.8555 35.5H76.1709ZM77.8662 34.2148H79.8281C80.4342 34.2148 80.8786 34.0667 81.1611 33.7705C81.4437 33.4743 81.585 33.0755 81.585 32.5742C81.585 32.0729 81.4437 31.6764 81.1611 31.3848C80.8786 31.0931 80.4342 30.9473 79.8281 30.9473H77.8662V34.2148ZM77.8662 29.71H79.6299C80.2314 29.71 80.6644 29.5824 80.9287 29.3271C81.1976 29.0719 81.332 28.7165 81.332 28.2607C81.332 27.805 81.1976 27.4541 80.9287 27.208C80.6644 26.9619 80.2314 26.8389 79.6299 26.8389H77.8662V29.71Z" fill="#34D399"/>
</g>
<rect width="22" height="32" transform="translate(90 14.5)" fill="#16A34A"/>
<g style="mix-blend-mode:screen">
<path d="M97.0283 30.8379V30.209C97.0283 28.6458 97.4271 27.445 98.2246 26.6064C99.0267 25.7633 100.052 25.3418 101.301 25.3418C102.513 25.3418 103.47 25.6676 104.172 26.3193C104.874 26.971 105.225 27.7845 105.225 28.7598V28.876H103.495V28.7461C103.495 28.1354 103.313 27.6455 102.948 27.2764C102.588 26.9027 102.035 26.7158 101.287 26.7158C100.544 26.7158 99.9404 26.9847 99.4756 27.5225C99.0107 28.0602 98.7783 28.9147 98.7783 30.0859V30.9609C98.7783 32.041 99.0085 32.8727 99.4688 33.4561C99.929 34.0394 100.54 34.3311 101.301 34.3311C102.007 34.3311 102.536 34.1396 102.887 33.7568C103.242 33.374 103.443 32.8864 103.488 32.2939L103.495 32.1709H105.225L105.218 32.2939C105.154 33.2601 104.787 34.0713 104.117 34.7275C103.452 35.3792 102.513 35.7051 101.301 35.7051C100.048 35.7051 99.0221 35.2835 98.2246 34.4404C97.4271 33.5928 97.0283 32.3919 97.0283 30.8379Z" fill="#34D399"/>
</g>
<rect width="22" height="32" transform="translate(112 14.5)" fill="#65A30D"/>
<g style="mix-blend-mode:screen">
<path d="M119.329 35.5V25.5469H122.467C123.77 25.5469 124.857 25.9616 125.728 26.791C126.603 27.6204 127.04 28.7598 127.04 30.209V30.8379C127.04 32.2871 126.603 33.4264 125.728 34.2559C124.857 35.0853 123.77 35.5 122.467 35.5H119.329ZM121.038 34.1738H122.446C123.308 34.1738 123.998 33.889 124.518 33.3193C125.037 32.7451 125.297 31.9248 125.297 30.8584V30.1885C125.297 29.1221 125.037 28.304 124.518 27.7344C123.998 27.1647 123.308 26.8799 122.446 26.8799H121.038V34.1738Z" fill="#34D399"/>
</g>
<rect width="21" height="32" transform="translate(134 14.5)" fill="#FBBF24"/>
<g style="mix-blend-mode:screen">
<path d="M141.567 35.5V25.5469H148.014V26.8936H143.276V29.71H147.392V31.0361H143.276V34.1602H148.089V35.5H141.567Z" fill="#34D399"/>
</g>
<rect width="20" height="32" transform="translate(155 14.5)" fill="#FB923C"/>
<g style="mix-blend-mode:screen">
<path d="M162.184 35.5V25.5469H168.541V26.8936H163.899V29.9697H167.919V31.3027H163.899V35.5H162.184Z" fill="#34D399"/>
</g>
<path d="M175 14.5H189C194.523 14.5 199 18.9772 199 24.5V36.5C199 42.0228 194.523 46.5 189 46.5H175V14.5Z" fill="#F87171"/>
<g style="mix-blend-mode:screen">
<path d="M181.898 30.8379V30.209C181.898 28.6458 182.297 27.445 183.095 26.6064C183.897 25.7633 184.943 25.3418 186.232 25.3418C187.408 25.3418 188.331 25.6426 189.001 26.2441C189.675 26.8457 190.033 27.5817 190.074 28.4521V28.5342H188.352V28.4658C188.352 28.0192 188.165 27.6159 187.791 27.2559C187.422 26.8958 186.886 26.7158 186.185 26.7158C185.419 26.7158 184.804 27.0052 184.339 27.584C183.879 28.1628 183.648 28.9967 183.648 30.0859V30.9609C183.648 32.0592 183.888 32.8978 184.366 33.4766C184.845 34.0508 185.51 34.3379 186.362 34.3379C186.8 34.3379 187.176 34.2923 187.49 34.2012C187.809 34.1055 188.112 33.9574 188.399 33.7568V31.7129H186.232V30.3867H190.074V34.3516C189.746 34.6888 189.268 34.9987 188.639 35.2812C188.014 35.5638 187.253 35.7051 186.355 35.7051C184.984 35.7051 183.897 35.2858 183.095 34.4473C182.297 33.6087 181.898 32.4056 181.898 30.8379Z" fill="#34D399"/>
</g>
<path d="M18 57.5H91V79.5H18C14.134 79.5 11 76.366 11 72.5V64.5C11 60.634 14.134 57.5 18 57.5Z" stroke="#0A0A0A" stroke-width="2"/>
<path d="M20.8579 69.5488V67.0527C20.8579 66.4375 21.0205 65.9365 21.3457 65.5498C21.6738 65.1631 22.1558 64.9697 22.7915 64.9697C23.4243 64.9697 23.9048 65.1631 24.2329 65.5498C24.561 65.9336 24.7251 66.4346 24.7251 67.0527V69.5488C24.7251 70.1582 24.5596 70.6577 24.2285 71.0474C23.8975 71.437 23.4185 71.6318 22.7915 71.6318C22.1528 71.6318 21.6709 71.437 21.3457 71.0474C21.0205 70.6577 20.8579 70.1582 20.8579 69.5488ZM22.1499 69.7202C22.1499 70.0015 22.2012 70.23 22.3037 70.4058C22.4062 70.5786 22.5688 70.665 22.7915 70.665C23.0171 70.665 23.1812 70.5786 23.2837 70.4058C23.3862 70.23 23.4375 70.0015 23.4375 69.7202V66.9077C23.4375 66.6147 23.3862 66.3804 23.2837 66.2046C23.1812 66.0259 23.0171 65.9365 22.7915 65.9365C22.5688 65.9365 22.4062 66.0259 22.3037 66.2046C22.2012 66.3804 22.1499 66.6147 22.1499 66.9077V69.7202ZM25.459 72.4844C25.6143 72.2852 25.7314 72.0771 25.8105 71.8604C25.8896 71.6436 25.9292 71.3945 25.9292 71.1133V70.208H27.0498V71.1089C27.0498 71.4751 26.9678 71.8091 26.8037 72.1108C26.6396 72.4155 26.4229 72.6792 26.1533 72.9019L25.459 72.4844ZM28.1528 69.5488V67.0527C28.1528 66.4375 28.3154 65.9365 28.6406 65.5498C28.9688 65.1631 29.4507 64.9697 30.0864 64.9697C30.7192 64.9697 31.1997 65.1631 31.5278 65.5498C31.856 65.9336 32.02 66.4346 32.02 67.0527V69.5488C32.02 70.1582 31.8545 70.6577 31.5234 71.0474C31.1924 71.437 30.7134 71.6318 30.0864 71.6318C29.4478 71.6318 28.9658 71.437 28.6406 71.0474C28.3154 70.6577 28.1528 70.1582 28.1528 69.5488ZM29.4448 69.7202C29.4448 70.0015 29.4961 70.23 29.5986 70.4058C29.7012 70.5786 29.8638 70.665 30.0864 70.665C30.312 70.665 30.4761 70.5786 30.5786 70.4058C30.6812 70.23 30.7324 70.0015 30.7324 69.7202V66.9077C30.7324 66.6147 30.6812 66.3804 30.5786 66.2046C30.4761 66.0259 30.312 65.9365 30.0864 65.9365C29.8638 65.9365 29.7012 66.0259 29.5986 66.2046C29.4961 66.3804 29.4448 66.6147 29.4448 66.9077V69.7202ZM32.666 68.8281V68.6699C32.666 67.5625 32.9429 66.6792 33.4966 66.02C34.0503 65.3579 34.8677 65.0269 35.9487 65.0269H36.0498V66.0156H35.9531C35.2939 66.0156 34.7886 66.2207 34.437 66.6309C34.0854 67.041 33.9097 67.7148 33.9097 68.6523V68.8457C33.9097 69.54 33.98 70.0205 34.1206 70.2871C34.2612 70.5537 34.4546 70.687 34.7007 70.687C34.9351 70.687 35.1108 70.5874 35.228 70.3882C35.3481 70.186 35.4082 69.8652 35.4082 69.4258C35.4082 68.9746 35.3481 68.6494 35.228 68.4502C35.1108 68.251 34.9336 68.1514 34.6963 68.1514C34.4648 68.1514 34.2729 68.2524 34.1206 68.4546C33.9683 68.6567 33.8921 68.9702 33.8921 69.395H33.4746C33.4746 68.7534 33.6006 68.2437 33.8525 67.8657C34.1045 67.4849 34.4766 67.2944 34.9688 67.2944C35.499 67.2944 35.9136 67.4863 36.2124 67.8701C36.5142 68.251 36.665 68.7637 36.665 69.4082C36.665 70.0645 36.4951 70.5991 36.1553 71.0122C35.8154 71.4253 35.3364 71.6318 34.7183 71.6318C34.1353 71.6318 33.6475 71.4136 33.2549 70.9771C32.8623 70.5376 32.666 69.8213 32.666 68.8281ZM37.2275 68.8281V68.6699C37.2275 67.5625 37.5044 66.6792 38.0581 66.02C38.6118 65.3579 39.4292 65.0269 40.5103 65.0269H40.6113V66.0156H40.5146C39.8555 66.0156 39.3501 66.2207 38.9985 66.6309C38.647 67.041 38.4712 67.7148 38.4712 68.6523V68.8457C38.4712 69.54 38.5415 70.0205 38.6821 70.2871C38.8228 70.5537 39.0161 70.687 39.2622 70.687C39.4966 70.687 39.6724 70.5874 39.7896 70.3882C39.9097 70.186 39.9697 69.8652 39.9697 69.4258C39.9697 68.9746 39.9097 68.6494 39.7896 68.4502C39.6724 68.251 39.4951 68.1514 39.2578 68.1514C39.0264 68.1514 38.8345 68.2524 38.6821 68.4546C38.5298 68.6567 38.4536 68.9702 38.4536 69.395H38.0361C38.0361 68.7534 38.1621 68.2437 38.4141 67.8657C38.666 67.4849 39.0381 67.2944 39.5303 67.2944C40.0605 67.2944 40.4751 67.4863 40.7739 67.8701C41.0757 68.251 41.2266 68.7637 41.2266 69.4082C41.2266 70.0645 41.0566 70.5991 40.7168 71.0122C40.377 71.4253 39.8979 71.6318 39.2798 71.6318C38.6968 71.6318 38.209 71.4136 37.8164 70.9771C37.4238 70.5376 37.2275 69.8213 37.2275 68.8281ZM44.2505 71.5V66.5234H45.2246V68.4888L46.7251 66.5234H47.7607L45.2246 69.7192V71.5H44.2505ZM46.7627 71.5L45.3032 69.0938L45.8433 68.376L47.8564 71.5H46.7627ZM48.1333 72.5083L48.5947 71.9136C48.6904 72.0207 48.8044 72.1073 48.9365 72.1733C49.0687 72.2394 49.2202 72.2725 49.3911 72.2725C49.603 72.2725 49.7739 72.1995 49.9038 72.0537C50.0337 71.9079 50.0986 71.6777 50.0986 71.3633V71.1411C50.0257 71.2687 49.9141 71.3656 49.7637 71.4316C49.6156 71.4954 49.4412 71.5273 49.2407 71.5273C48.8579 71.5273 48.5503 71.3713 48.3179 71.0591C48.0877 70.7469 47.9727 70.3117 47.9727 69.7534V69.644C47.9727 69.0972 48.09 68.6574 48.3247 68.3247C48.5617 67.992 48.875 67.8257 49.2646 67.8257C49.472 67.8257 49.6497 67.8713 49.7979 67.9624C49.9482 68.0535 50.0508 68.1538 50.1055 68.2632H50.1191L50.1362 67.894H51.0386V71.2847C51.0386 71.8293 50.8996 72.2497 50.6216 72.5459C50.3459 72.8444 49.9619 72.9937 49.4697 72.9937C49.1963 72.9937 48.9422 72.9504 48.7075 72.8638C48.4751 72.7772 48.2837 72.6587 48.1333 72.5083ZM48.9399 69.9141C48.9399 70.2126 48.9867 70.4427 49.0801 70.6045C49.1758 70.764 49.3239 70.8438 49.5244 70.8438C49.6771 70.8438 49.8035 70.7993 49.9038 70.7104C50.0063 70.6193 50.0701 70.5156 50.0952 70.3994V69.0117C50.061 68.9001 49.995 68.7952 49.897 68.6973C49.8013 68.5993 49.6851 68.5503 49.5483 68.5503C49.3341 68.5503 49.1792 68.6346 49.0835 68.8032C48.9878 68.9696 48.9399 69.2054 48.9399 69.5107V69.9141ZM53.5337 69.1689V68.8545C53.5337 68.0479 53.7046 67.4406 54.0464 67.0327C54.3882 66.6248 54.8564 66.4209 55.4512 66.4209C55.9889 66.4209 56.4139 66.5793 56.7261 66.896C57.0382 67.2127 57.1943 67.6354 57.1943 68.1641V68.2427H56.21V68.1538C56.21 67.8667 56.1519 67.6331 56.0356 67.4531C55.9217 67.2731 55.7257 67.1831 55.4478 67.1831C55.1401 67.1831 54.9111 67.3005 54.7607 67.5352C54.6104 67.7676 54.5352 68.1276 54.5352 68.6152V69.4048C54.5352 69.8787 54.6149 70.2365 54.7744 70.478C54.9339 70.7196 55.1595 70.8403 55.4512 70.8403C55.7064 70.8403 55.8944 70.748 56.0151 70.5635C56.1382 70.3766 56.2031 70.1442 56.21 69.8662V69.7842H57.1943V69.8662C57.1943 70.3903 57.0382 70.8107 56.7261 71.1274C56.4139 71.4442 55.9889 71.6025 55.4512 71.6025C54.8542 71.6025 54.3848 71.3975 54.043 70.9873C53.7035 70.5749 53.5337 69.9688 53.5337 69.1689ZM57.813 69.1689V68.8545C57.813 68.041 57.9873 67.4326 58.3359 67.0293C58.6868 66.6237 59.1449 66.4209 59.71 66.4209C60.2751 66.4209 60.7331 66.6237 61.084 67.0293C61.4372 67.4326 61.6138 68.041 61.6138 68.8545V69.1689C61.6138 69.9824 61.4372 70.592 61.084 70.9976C60.7331 71.4009 60.2751 71.6025 59.71 71.6025C59.1449 71.6025 58.6868 71.4009 58.3359 70.9976C57.9873 70.592 57.813 69.9824 57.813 69.1689ZM58.811 69.3535C58.811 69.8548 58.8885 70.2285 59.0435 70.4746C59.1984 70.7184 59.4206 70.8403 59.71 70.8403C60.0016 70.8403 60.2249 70.7184 60.3799 70.4746C60.5348 70.2285 60.6123 69.8548 60.6123 69.3535V68.6665C60.6123 68.1675 60.5348 67.7961 60.3799 67.5522C60.2249 67.3062 60.0016 67.1831 59.71 67.1831C59.4206 67.1831 59.1984 67.3062 59.0435 67.5522C58.8885 67.7961 58.811 68.1675 58.811 68.6665V69.3535ZM62.1948 69.1177V68.7246L63.0049 67.7744C63.1188 67.6445 63.2031 67.5363 63.2578 67.4497C63.3148 67.3631 63.3433 67.2811 63.3433 67.2036C63.3433 67.1125 63.3228 67.043 63.2817 66.9951C63.243 66.9473 63.1815 66.9233 63.0972 66.9233C62.9969 66.9233 62.9229 66.9632 62.875 67.043C62.8271 67.1204 62.8044 67.2435 62.8066 67.4121H62.1504C62.1481 67.084 62.2279 66.8368 62.3896 66.6704C62.5514 66.5018 62.7839 66.4175 63.0869 66.4175C63.3991 66.4175 63.6304 66.4847 63.7808 66.6191C63.9334 66.7536 64.0098 66.9438 64.0098 67.1899C64.0098 67.3426 63.9642 67.4896 63.873 67.6309C63.7819 67.7699 63.6509 67.9305 63.48 68.1128L63.0596 68.5811H64.085V69.1177H62.1948ZM65.6401 71.9272L67.209 66.5234H68.0225L66.4536 71.9272H65.6401ZM69.3794 67.894H70.333L70.8491 69.9312C70.8719 70.02 70.8924 70.1134 70.9106 70.2114C70.9289 70.3071 70.9425 70.3983 70.9517 70.4849H70.9893C70.9961 70.3983 71.0086 70.3071 71.0269 70.2114C71.0474 70.1134 71.069 70.02 71.0918 69.9312L71.6079 67.894H72.5137L71.3755 71.5H70.5312L69.3794 67.894ZM72.9512 71.5V67.894H73.8979V71.5H72.9512ZM72.8862 66.8789C72.8862 66.7376 72.9329 66.6191 73.0264 66.5234C73.1198 66.4255 73.2531 66.3765 73.4263 66.3765C73.5994 66.3765 73.7327 66.4255 73.8262 66.5234C73.9196 66.6191 73.9663 66.7376 73.9663 66.8789C73.9663 67.0225 73.9196 67.1432 73.8262 67.2412C73.7327 67.3369 73.5983 67.3848 73.4229 67.3848C73.252 67.3848 73.1198 67.3369 73.0264 67.2412C72.9329 67.1432 72.8862 67.0225 72.8862 66.8789ZM74.561 70.3721L75.4258 70.3755V70.4336C75.4258 70.6159 75.4748 70.7537 75.5728 70.8472C75.6707 70.9383 75.8018 70.9839 75.9658 70.9839C76.1208 70.9839 76.2393 70.9463 76.3213 70.8711C76.4056 70.7959 76.4478 70.6877 76.4478 70.5464C76.4478 70.4142 76.3988 70.3071 76.3008 70.2251C76.2051 70.1408 75.9954 70.0508 75.6719 69.9551C75.3483 69.8571 75.0954 69.7249 74.9131 69.5586C74.7308 69.3923 74.6396 69.1655 74.6396 68.8784C74.6396 68.5435 74.7616 68.278 75.0054 68.082C75.2515 67.8861 75.575 67.7881 75.9761 67.7881C76.3817 67.7881 76.7041 67.8883 76.9434 68.0889C77.1826 68.2894 77.3045 68.5708 77.3091 68.9331V68.9946H76.4443V68.875C76.4443 68.7178 76.4056 68.6027 76.3281 68.5298C76.2507 68.4569 76.1344 68.4204 75.9795 68.4204C75.8314 68.4204 75.722 68.4535 75.6514 68.5195C75.5807 68.5833 75.5454 68.6756 75.5454 68.7964C75.5454 68.9172 75.5967 69.0151 75.6992 69.0903C75.804 69.1632 76.0205 69.251 76.3486 69.3535C76.6836 69.4606 76.9365 69.5996 77.1074 69.7705C77.2806 69.9391 77.3672 70.1807 77.3672 70.4951C77.3672 70.8255 77.2476 71.0933 77.0083 71.2983C76.769 71.5011 76.425 71.6025 75.9761 71.6025C75.5295 71.6025 75.182 71.5057 74.9336 71.312C74.6852 71.116 74.561 70.8141 74.561 70.4062V70.3721ZM78.0303 71.5V67.894H78.9771V71.5H78.0303ZM77.9653 66.8789C77.9653 66.7376 78.012 66.6191 78.1055 66.5234C78.1989 66.4255 78.3322 66.3765 78.5054 66.3765C78.6785 66.3765 78.8118 66.4255 78.9053 66.5234C78.9987 66.6191 79.0454 66.7376 79.0454 66.8789C79.0454 67.0225 78.9987 67.1432 78.9053 67.2412C78.8118 67.3369 78.6774 67.3848 78.502 67.3848C78.3311 67.3848 78.1989 67.3369 78.1055 67.2412C78.012 67.1432 77.9653 67.0225 77.9653 66.8789ZM79.4453 68.5913V67.894H81.3662V68.5913H79.4453ZM79.8794 70.4473V68.2632V68.1641V67.043H80.8193V70.4541C80.8193 70.6204 80.8398 70.7332 80.8809 70.7925C80.9242 70.8494 80.9948 70.8779 81.0928 70.8779C81.1361 70.8779 81.1759 70.8745 81.2124 70.8677C81.2511 70.8586 81.2922 70.8449 81.3354 70.8267V71.4966C81.2853 71.5308 81.2227 71.557 81.1475 71.5752C81.0745 71.5934 80.9857 71.6025 80.8809 71.6025C80.5801 71.6025 80.3374 71.5103 80.1528 71.3257C79.9705 71.1388 79.8794 70.846 79.8794 70.4473Z" fill="#0A0A0A"/>
<rect width="26" height="24" transform="translate(92 56.5)" fill="#0A0A0A"/>
<path d="M97.0669 73V63.76H100.819C101.323 63.76 101.78 63.802 102.191 63.886C102.602 63.9607 102.966 64.0727 103.283 64.222C103.6 64.3713 103.866 64.558 104.081 64.782C104.305 64.9967 104.473 65.2487 104.585 65.538C104.697 65.818 104.753 66.1307 104.753 66.476C104.753 66.8027 104.702 67.1013 104.599 67.372C104.496 67.6333 104.342 67.862 104.137 68.058C103.932 68.254 103.675 68.4173 103.367 68.548C103.059 68.6693 102.7 68.7533 102.289 68.8V69.01C102.765 69.0567 103.143 69.1687 103.423 69.346C103.712 69.514 103.936 69.7427 104.095 70.032C104.263 70.3213 104.408 70.6807 104.529 71.11L105.089 73H102.863L102.429 71.25C102.345 70.8767 102.224 70.5873 102.065 70.382C101.906 70.1673 101.706 70.018 101.463 69.934C101.22 69.8407 100.926 69.794 100.581 69.794H99.0829V73H97.0669ZM99.0829 68.282H100.679C101.314 68.282 101.804 68.1607 102.149 67.918C102.494 67.6753 102.667 67.2973 102.667 66.784C102.667 66.28 102.504 65.9113 102.177 65.678C101.86 65.4353 101.379 65.314 100.735 65.314H99.0829V68.282ZM109.383 75.562C108.58 75.562 107.918 75.4967 107.395 75.366C106.882 75.2447 106.504 75.0627 106.261 74.82C106.018 74.5773 105.897 74.274 105.897 73.91C105.897 73.4807 106.065 73.1307 106.401 72.86C106.746 72.5893 107.25 72.426 107.913 72.37V72.09C107.409 72.09 107.022 72.0387 106.751 71.936C106.48 71.824 106.345 71.6327 106.345 71.362C106.345 71.1007 106.476 70.8673 106.737 70.662C107.008 70.4567 107.451 70.2933 108.067 70.172V69.892C107.488 69.8547 107.036 69.668 106.709 69.332C106.382 68.996 106.219 68.562 106.219 68.03C106.219 67.5633 106.35 67.148 106.611 66.784C106.872 66.4107 107.26 66.1167 107.773 65.902C108.296 65.678 108.935 65.566 109.691 65.566H113.415V67.106L111.105 66.784V67.106C111.702 67.19 112.132 67.3393 112.393 67.554C112.664 67.7687 112.799 68.0673 112.799 68.45C112.799 68.8327 112.673 69.1687 112.421 69.458C112.169 69.7473 111.81 69.976 111.343 70.144C110.886 70.3027 110.335 70.382 109.691 70.382C109.57 70.382 109.439 70.3773 109.299 70.368C109.159 70.3587 108.926 70.3353 108.599 70.298C108.422 70.4287 108.282 70.5453 108.179 70.648C108.086 70.7413 108.039 70.83 108.039 70.914C108.039 70.9793 108.072 71.0353 108.137 71.082C108.212 71.1287 108.305 71.1613 108.417 71.18C108.538 71.1987 108.66 71.208 108.781 71.208H110.881C111.068 71.208 111.31 71.222 111.609 71.25C111.908 71.2687 112.206 71.3387 112.505 71.46C112.804 71.5813 113.056 71.7773 113.261 72.048C113.466 72.3093 113.569 72.6873 113.569 73.182C113.569 73.7233 113.415 74.1713 113.107 74.526C112.808 74.8807 112.346 75.142 111.721 75.31C111.105 75.478 110.326 75.562 109.383 75.562ZM109.607 73.952C110.176 73.952 110.62 73.9193 110.937 73.854C111.254 73.798 111.478 73.7 111.609 73.56C111.749 73.4293 111.819 73.2613 111.819 73.056C111.819 72.8693 111.777 72.7247 111.693 72.622C111.618 72.5193 111.516 72.4493 111.385 72.412C111.264 72.3653 111.138 72.3373 111.007 72.328C110.886 72.3093 110.778 72.3 110.685 72.3H108.921C108.529 72.3373 108.244 72.4447 108.067 72.622C107.899 72.79 107.815 72.986 107.815 73.21C107.815 73.4153 107.88 73.5693 108.011 73.672C108.142 73.7747 108.338 73.8447 108.599 73.882C108.87 73.9287 109.206 73.952 109.607 73.952ZM109.579 69.332C110.027 69.332 110.363 69.2247 110.587 69.01C110.811 68.786 110.923 68.4967 110.923 68.142C110.923 67.7687 110.806 67.4607 110.573 67.218C110.349 66.9753 110.018 66.854 109.579 66.854C109.15 66.854 108.814 66.9753 108.571 67.218C108.328 67.4513 108.207 67.7547 108.207 68.128C108.207 68.3613 108.258 68.5713 108.361 68.758C108.473 68.9353 108.632 69.0753 108.837 69.178C109.042 69.2807 109.29 69.332 109.579 69.332Z" fill="#F0FDF4"/>
<path d="M119 57.5H192C195.866 57.5 199 60.634 199 64.5V72.5C199 76.366 195.866 79.5 192 79.5H119V57.5Z" stroke="#0A0A0A" stroke-width="2"/>
<path d="M139.083 68.6689V68.3545C139.083 67.5524 139.252 66.9463 139.589 66.5361C139.929 66.126 140.389 65.9209 140.97 65.9209C141.515 65.9209 141.934 66.0667 142.228 66.3584C142.524 66.6478 142.679 67.0283 142.693 67.5V67.5444H141.712V67.5068C141.714 67.2607 141.653 67.0625 141.527 66.9121C141.402 66.7594 141.206 66.6831 140.939 66.6831C140.652 66.6831 140.437 66.7936 140.293 67.0146C140.152 67.2334 140.082 67.6025 140.082 68.1221V68.9014C140.082 69.4209 140.164 69.7912 140.328 70.0122C140.494 70.2332 140.722 70.3438 141.011 70.3438C141.178 70.3438 141.319 70.3278 141.435 70.2959C141.551 70.2617 141.652 70.2104 141.736 70.1421V69.1372H141.015V68.3989H142.693V70.4736C142.52 70.6491 142.292 70.7983 142.009 70.9214C141.729 71.0422 141.391 71.1025 140.994 71.1025C140.404 71.1025 139.938 70.9054 139.596 70.5112C139.254 70.1147 139.083 69.5007 139.083 68.6689ZM143.284 71V67.394H144.19L144.21 67.729H144.228C144.289 67.6037 144.371 67.5 144.474 67.418C144.578 67.3359 144.694 67.2949 144.819 67.2949C144.869 67.2949 144.915 67.3006 144.956 67.312C144.999 67.3211 145.035 67.3337 145.065 67.3496V68.1733C145.024 68.1619 144.983 68.154 144.942 68.1494C144.901 68.1426 144.853 68.1392 144.798 68.1392C144.68 68.1392 144.572 68.1802 144.474 68.2622C144.378 68.342 144.308 68.4456 144.265 68.5732V71H143.284ZM145.328 69.25V69.1406C145.328 68.5596 145.469 68.1061 145.752 67.7803C146.037 67.4544 146.412 67.2915 146.876 67.2915C147.325 67.2915 147.679 67.4442 147.936 67.7495C148.196 68.0549 148.326 68.4992 148.326 69.0825V69.4277H145.933V68.8364H147.417V68.7544C147.417 68.5197 147.374 68.3328 147.29 68.1938C147.208 68.0549 147.069 67.9854 146.873 67.9854C146.668 67.9854 146.514 68.0662 146.412 68.228C146.309 68.3898 146.258 68.6439 146.258 68.9902V69.4004C146.258 69.7308 146.309 69.9792 146.412 70.1455C146.516 70.3096 146.684 70.3916 146.914 70.3916C147.083 70.3916 147.219 70.3529 147.324 70.2754C147.429 70.1956 147.518 70.0965 147.591 69.978L148.295 70.3643C148.206 70.5671 148.044 70.7414 147.81 70.8872C147.577 71.0308 147.29 71.1025 146.948 71.1025C146.429 71.1025 146.029 70.9396 145.749 70.6138C145.468 70.2879 145.328 69.8333 145.328 69.25ZM148.773 69.25V69.1406C148.773 68.5596 148.915 68.1061 149.197 67.7803C149.482 67.4544 149.857 67.2915 150.322 67.2915C150.771 67.2915 151.124 67.4442 151.381 67.7495C151.641 68.0549 151.771 68.4992 151.771 69.0825V69.4277H149.378V68.8364H150.862V68.7544C150.862 68.5197 150.82 68.3328 150.735 68.1938C150.653 68.0549 150.514 67.9854 150.318 67.9854C150.113 67.9854 149.959 68.0662 149.857 68.228C149.754 68.3898 149.703 68.6439 149.703 68.9902V69.4004C149.703 69.7308 149.754 69.9792 149.857 70.1455C149.962 70.3096 150.129 70.3916 150.359 70.3916C150.528 70.3916 150.665 70.3529 150.77 70.2754C150.874 70.1956 150.963 70.0965 151.036 69.978L151.74 70.3643C151.651 70.5671 151.49 70.7414 151.255 70.8872C151.022 71.0308 150.735 71.1025 150.394 71.1025C149.874 71.1025 149.474 70.9396 149.194 70.6138C148.914 70.2879 148.773 69.8333 148.773 69.25ZM152.383 71V67.394H153.285L153.306 67.7563H153.319C153.401 67.631 153.516 67.5273 153.665 67.4453C153.815 67.3633 153.994 67.3223 154.201 67.3223C154.504 67.3223 154.756 67.4225 154.957 67.623C155.157 67.8213 155.257 68.1711 155.257 68.6724V71H154.314V68.6143C154.314 68.4183 154.278 68.277 154.205 68.1904C154.134 68.1038 154.025 68.0605 153.876 68.0605C153.737 68.0605 153.619 68.1027 153.521 68.187C153.423 68.2713 153.359 68.3647 153.33 68.4673V71H152.383ZM157.79 71V65.7637H158.733V67.8931C158.811 67.7222 158.929 67.5843 159.089 67.4795C159.251 67.3747 159.452 67.3223 159.694 67.3223C159.974 67.3223 160.205 67.4237 160.388 67.6265C160.572 67.827 160.665 68.1312 160.665 68.5391V71H159.721V68.5903C159.721 68.4194 159.687 68.2884 159.619 68.1973C159.553 68.1061 159.45 68.0605 159.311 68.0605C159.165 68.0605 159.04 68.1118 158.935 68.2144C158.833 68.3169 158.766 68.4434 158.737 68.5938V71H157.79ZM161.297 69.25V69.1406C161.297 68.5505 161.444 68.0947 161.738 67.7734C162.032 67.4521 162.413 67.2915 162.883 67.2915C163.354 67.2915 163.737 67.4521 164.031 67.7734C164.327 68.0947 164.476 68.5505 164.476 69.1406V69.25C164.476 69.8402 164.327 70.297 164.031 70.6206C163.737 70.9419 163.354 71.1025 162.883 71.1025C162.413 71.1025 162.032 70.9419 161.738 70.6206C161.444 70.297 161.297 69.8402 161.297 69.25ZM162.264 68.9902V69.4038C162.264 69.7205 162.314 69.9621 162.415 70.1284C162.515 70.2925 162.671 70.3745 162.883 70.3745C163.097 70.3745 163.254 70.2925 163.354 70.1284C163.457 69.9621 163.508 69.7205 163.508 69.4038V68.9902C163.508 68.6667 163.459 68.424 163.361 68.2622C163.266 68.1004 163.106 68.0195 162.883 68.0195C162.662 68.0195 162.503 68.1027 162.408 68.269C162.312 68.4331 162.264 68.6735 162.264 68.9902ZM164.917 69.8721L165.781 69.8755V69.9336C165.781 70.1159 165.83 70.2537 165.928 70.3472C166.026 70.4383 166.157 70.4839 166.321 70.4839C166.476 70.4839 166.595 70.4463 166.677 70.3711C166.761 70.2959 166.803 70.1877 166.803 70.0464C166.803 69.9142 166.754 69.8071 166.656 69.7251C166.561 69.6408 166.351 69.5508 166.027 69.4551C165.704 69.3571 165.451 69.2249 165.269 69.0586C165.086 68.8923 164.995 68.6655 164.995 68.3784C164.995 68.0435 165.117 67.778 165.361 67.582C165.607 67.3861 165.931 67.2881 166.332 67.2881C166.737 67.2881 167.06 67.3883 167.299 67.5889C167.538 67.7894 167.66 68.0708 167.665 68.4331V68.4946H166.8V68.375C166.8 68.2178 166.761 68.1027 166.684 68.0298C166.606 67.9569 166.49 67.9204 166.335 67.9204C166.187 67.9204 166.077 67.9535 166.007 68.0195C165.936 68.0833 165.901 68.1756 165.901 68.2964C165.901 68.4172 165.952 68.5151 166.055 68.5903C166.16 68.6632 166.376 68.751 166.704 68.8535C167.039 68.9606 167.292 69.0996 167.463 69.2705C167.636 69.4391 167.723 69.6807 167.723 69.9951C167.723 70.3255 167.603 70.5933 167.364 70.7983C167.125 71.0011 166.78 71.1025 166.332 71.1025C165.885 71.1025 165.537 71.0057 165.289 70.812C165.041 70.616 164.917 70.3141 164.917 69.9062V69.8721ZM167.921 68.0913V67.394H169.842V68.0913H167.921ZM168.355 69.9473V67.7632V67.6641V66.543H169.295V69.9541C169.295 70.1204 169.315 70.2332 169.356 70.2925C169.4 70.3494 169.47 70.3779 169.568 70.3779C169.612 70.3779 169.652 70.3745 169.688 70.3677C169.727 70.3586 169.768 70.3449 169.811 70.3267V70.9966C169.761 71.0308 169.698 71.057 169.623 71.0752C169.55 71.0934 169.461 71.1025 169.356 71.1025C169.056 71.1025 168.813 71.0103 168.628 70.8257C168.446 70.6388 168.355 70.346 168.355 69.9473ZM170.43 71V67.394H171.376V71H170.43ZM170.365 66.3789C170.365 66.2376 170.411 66.1191 170.505 66.0234C170.598 65.9255 170.732 65.8765 170.905 65.8765C171.078 65.8765 171.211 65.9255 171.305 66.0234C171.398 66.1191 171.445 66.2376 171.445 66.3789C171.445 66.5225 171.398 66.6432 171.305 66.7412C171.211 66.8369 171.077 66.8848 170.901 66.8848C170.73 66.8848 170.598 66.8369 170.505 66.7412C170.411 66.6432 170.365 66.5225 170.365 66.3789ZM172.262 71V67.394H173.164L173.185 67.7563H173.198C173.28 67.631 173.395 67.5273 173.543 67.4453C173.694 67.3633 173.873 67.3223 174.08 67.3223C174.383 67.3223 174.635 67.4225 174.835 67.623C175.036 67.8213 175.136 68.1711 175.136 68.6724V71H174.193V68.6143C174.193 68.4183 174.156 68.277 174.083 68.1904C174.013 68.1038 173.903 68.0605 173.755 68.0605C173.616 68.0605 173.498 68.1027 173.4 68.187C173.302 68.2713 173.238 68.3647 173.208 68.4673V71H172.262ZM175.936 72.0083L176.397 71.4136C176.493 71.5207 176.607 71.6073 176.739 71.6733C176.871 71.7394 177.023 71.7725 177.194 71.7725C177.406 71.7725 177.577 71.6995 177.707 71.5537C177.836 71.4079 177.901 71.1777 177.901 70.8633V70.6411C177.828 70.7687 177.717 70.8656 177.566 70.9316C177.418 70.9954 177.244 71.0273 177.043 71.0273C176.661 71.0273 176.353 70.8713 176.121 70.5591C175.89 70.2469 175.775 69.8117 175.775 69.2534V69.144C175.775 68.5972 175.893 68.1574 176.127 67.8247C176.364 67.492 176.678 67.3257 177.067 67.3257C177.275 67.3257 177.452 67.3713 177.601 67.4624C177.751 67.5535 177.854 67.6538 177.908 67.7632H177.922L177.939 67.394H178.841V70.7847C178.841 71.3293 178.702 71.7497 178.424 72.0459C178.149 72.3444 177.765 72.4937 177.272 72.4937C176.999 72.4937 176.745 72.4504 176.51 72.3638C176.278 72.2772 176.086 72.1587 175.936 72.0083ZM176.743 69.4141C176.743 69.7126 176.789 69.9427 176.883 70.1045C176.979 70.264 177.127 70.3438 177.327 70.3438C177.48 70.3438 177.606 70.2993 177.707 70.2104C177.809 70.1193 177.873 70.0156 177.898 69.8994V68.5117C177.864 68.4001 177.798 68.2952 177.7 68.1973C177.604 68.0993 177.488 68.0503 177.351 68.0503C177.137 68.0503 176.982 68.1346 176.886 68.3032C176.791 68.4696 176.743 68.7054 176.743 69.0107V69.4141Z" fill="#0A0A0A"/>
</g>
<defs>
<filter id="filter0_b_5704_96" x="-4" y="-4" width="218" height="103" filterUnits="userSpaceOnUse" color-interpolation-filters="sRGB">
<feFlood flood-opacity="0" result="BackgroundImageFix"/>
<feGaussianBlur in="BackgroundImageFix" stdDeviation="2"/>
<feComposite in2="SourceAlpha" operator="in" result="effect1_backgroundBlur_5704_96"/>
<feBlend mode="normal" in="SourceGraphic" in2="effect1_backgroundBlur_5704_96" result="shape"/>
</filter>
</defs>
</svg>
